<svg width="0" height="0" class="hidden">
  <symbol fill="none" xmlns="http://www.w3.org/2000/svg" viewBox="0 0 61 66" id="airbnb">
    <g clip-path="url(#clip0_62_2749)">
      <path d="M56.2752 54.0679C55.8228 57.4298 53.5604 60.3388 50.393 61.6316C48.8415 62.2773 47.161 62.4719 45.4801 62.2773C43.8643 62.0837 42.248 61.5665 40.5676 60.5978C38.2402 59.3036 35.9131 57.3006 33.1984 54.3269C37.4649 49.0909 40.0498 44.3073 41.0199 40.0417C41.4725 38.0376 41.5369 36.2275 41.3434 34.5466C41.0851 32.9308 40.5031 31.4434 39.5977 30.1509C37.5938 27.2423 34.2329 25.5613 30.4836 25.5613C26.7343 25.5613 23.3731 27.307 21.3692 30.1509C20.4638 31.4437 19.8828 32.9308 19.6238 34.5466C19.3655 36.2275 19.43 38.102 19.9473 40.042C20.9166 44.3071 23.5667 49.1556 27.7688 54.3906C25.1185 57.3651 22.7267 59.3687 20.3994 60.6618C18.7189 61.6316 17.1027 62.1489 15.4869 62.342C13.8212 62.5281 12.1352 62.3065 10.5741 61.6963C7.40656 60.4035 5.14461 57.4935 4.6918 54.1323C4.4982 52.5168 4.62735 50.901 5.27375 49.0909C5.46735 48.4441 5.79102 47.7988 6.11375 47.0226C6.56656 45.9887 7.08383 44.8891 7.60039 43.7898L7.66555 43.6614C12.1252 34.0293 16.9091 24.2041 21.8865 14.6376L22.0803 14.249C22.5976 13.2803 23.1141 12.2465 23.6319 11.2764C24.1487 10.2419 24.7304 9.27203 25.4412 8.43109C26.7987 6.87953 28.6088 6.0393 30.6127 6.0393C32.6166 6.0393 34.4265 6.87953 35.784 8.43133C36.4951 9.27203 37.0768 10.2419 37.5941 11.2766C38.1113 12.2465 38.6279 13.2803 39.1452 14.249L39.3397 14.6376C44.252 24.2685 49.0358 34.0937 53.4959 43.7259V43.7898C54.0132 44.8244 54.4653 45.9887 54.9826 47.0226C55.306 47.7988 55.629 48.4438 55.8226 49.0909C56.3398 50.7714 56.5337 52.3881 56.2754 54.0679H56.2752ZM30.4836 51.0294C26.9933 46.6344 24.7304 42.497 23.9548 39.0074C23.6321 37.5203 23.5667 36.2275 23.7613 35.0638C23.8902 34.0293 24.2785 33.1239 24.7948 32.3477C26.0232 30.6039 28.0916 29.503 30.4836 29.503C32.8754 29.503 35.0084 30.5383 36.1719 32.3477C36.6887 33.1239 37.0768 34.0293 37.2059 35.0638C37.3998 36.2275 37.3351 37.5848 37.0121 39.0074C36.2366 42.433 33.9739 46.57 30.4836 51.0294ZM59.6366 47.6685C59.3136 46.8927 58.9902 46.0527 58.6672 45.3416C58.1499 44.1787 57.6327 43.079 57.1801 42.0444L57.1154 41.9805C52.6557 32.2837 47.8719 22.4584 42.8298 12.7637L42.6362 12.3747C42.1189 11.4051 41.6016 10.3705 41.0851 9.33648C40.4382 8.17234 39.7916 6.94539 38.7577 5.78102C36.6884 3.19539 33.7156 1.77344 30.5478 1.77344C27.3158 1.77344 24.4072 3.19539 22.2737 5.65234C21.3045 6.81555 20.5934 8.04367 19.947 9.20805C19.4298 10.2419 18.9125 11.2764 18.3955 12.2465L18.2016 12.6332C13.2247 22.3293 8.37641 32.1552 3.91602 41.8513L3.85156 41.9805C3.39875 43.0143 2.88149 44.1128 2.36422 45.2772C2.01841 46.0433 1.69522 46.8194 1.39508 47.6045C0.554376 49.9956 0.296095 52.2585 0.619064 54.5852C1.33063 59.4334 4.56266 63.5064 9.02281 65.3158C10.703 66.0273 12.4484 66.3503 14.2588 66.3503C14.7758 66.3503 15.4222 66.2856 15.9395 66.2205C18.0723 65.9615 20.27 65.2518 22.4028 64.023C25.0536 62.5363 27.5748 60.4035 30.4187 57.3006C33.2626 60.4035 35.8484 62.5366 38.4341 64.023C40.5676 65.2518 42.7651 65.9615 44.8981 66.2205C45.4154 66.2856 46.0618 66.3503 46.5788 66.3503C48.3889 66.3503 50.1985 66.0273 51.8148 65.3158C56.3396 63.5064 59.507 59.369 60.218 54.5852C60.7353 52.3223 60.4763 50.061 59.6363 47.6683L59.6366 47.6685Z" fill="#E0565B"></path>
    </g>
    <defs>
      <clipPath id="clip0_62_2749">
        <rect width="60.2899" height="65" fill="white" transform="translate(0.484619 0.773438)"></rect>
      </clipPath>
    </defs>
  </symbol>
  <symbol fill="none" xmlns="http://www.w3.org/2000/svg" viewBox="0 0 61 71" id="android">
    <g clip-path="url(#clip0_62_2739)">
      <path d="M18.7444 0.201267C18.4009 0.203479 18.0634 0.291197 17.7623 0.456501C16.7737 1.00447 16.4112 2.27455 16.9589 3.26244L19.1909 7.29275C13.8134 10.6197 10.2502 16.3028 10.2502 22.7892V23.9943C9.21726 22.806 7.69921 22.0558 6.00304 22.0558C2.89523 22.0558 0.371948 24.5791 0.371948 27.6867V45.0325C0.371948 48.1399 2.89546 50.6634 6.00304 50.6634C7.69921 50.6634 9.21726 49.9129 10.2499 48.7246V51.1544C10.2499 54.4303 12.9305 57.1106 16.2063 57.1106H17.7176V64.8269C17.7176 67.9347 20.2411 70.458 23.3487 70.458C26.4562 70.458 28.9795 67.9345 28.9795 64.8269V57.1106H31.5942V64.8269C31.5942 67.9347 34.1177 70.458 37.2253 70.458C40.3329 70.458 42.8562 67.9345 42.8562 64.8269V57.1106H44.3676C47.6433 57.1106 50.3238 54.4303 50.3238 51.1544V48.7246C51.3565 49.9129 52.8748 50.6634 54.5709 50.6634C57.6785 50.6634 60.2018 48.1399 60.2018 45.0325V27.6867C60.2018 24.5791 57.6785 22.0558 54.5709 22.0558C52.8748 22.0558 51.3565 22.806 50.3238 23.9943V22.9931V22.9356C50.3243 22.8747 50.3238 22.826 50.3238 22.7892C50.3238 16.304 46.7524 10.6265 41.3768 7.29931L43.6151 3.26244C44.1626 2.27455 43.8002 1.00447 42.8116 0.456501C42.5106 0.291197 42.1731 0.203479 41.8296 0.201267C41.0995 0.194235 40.383 0.579079 40.0057 1.25994L37.6652 5.48806C35.3768 4.64361 32.8868 4.18072 30.2871 4.18072C27.6898 4.18072 25.1951 4.63869 22.9085 5.4815L20.5683 1.25994C20.1907 0.579079 19.4744 0.194704 18.7444 0.201267Z" fill="white"></path>
      <path d="M6.00313 23.5225C3.68422 23.5225 1.83899 25.3677 1.83899 27.6866V45.0325C1.83899 47.3514 3.68422 49.1966 6.00313 49.1966C8.32204 49.1966 10.1675 47.3514 10.1675 45.0325V27.6866C10.1675 25.3677 8.32204 23.5225 6.00313 23.5225ZM54.5713 23.5225C52.2521 23.5225 50.4069 25.3677 50.4069 27.6866V45.0325C50.4069 47.3514 52.2521 49.1966 54.5713 49.1966C56.8902 49.1966 58.7354 47.3514 58.7354 45.0325V27.6866C58.7354 25.3677 56.8902 23.5225 54.5713 23.5225Z" fill="#A4C639"></path>
      <path d="M23.3489 43.3169C21.03 43.3169 19.1846 45.1621 19.1846 47.4813V64.8269C19.1846 67.1458 21.03 68.991 23.3489 68.991C25.6679 68.991 27.5131 67.1458 27.5131 64.8269V47.4813C27.5131 45.1621 25.6679 43.3169 23.3489 43.3169ZM37.2256 43.3169C34.9064 43.3169 33.0612 45.1621 33.0612 47.4813V64.8269C33.0612 67.1458 34.9064 68.991 37.2256 68.991C39.5445 68.991 41.3897 67.1458 41.3897 64.8269V47.4813C41.3897 45.1621 39.5445 43.3169 37.2256 43.3169Z" fill="#A4C639"></path>
      <path d="M18.757 1.66805C18.6585 1.66924 18.5619 1.69554 18.4764 1.74446C18.1795 1.90899 18.082 2.25024 18.2467 2.54789L21.1804 7.84735C15.5367 10.7841 11.7243 16.3648 11.7168 22.7698H48.857C48.8493 16.3648 45.0372 10.7838 39.3934 7.84735L42.3269 2.54813C42.4919 2.25047 42.3942 1.90899 42.0972 1.74446C42.0117 1.69551 41.9151 1.66921 41.8167 1.66805C41.6057 1.66571 41.4063 1.77118 41.2938 1.97414L38.3219 7.33078C35.8909 6.25266 33.1642 5.64727 30.2868 5.64727C27.4094 5.64727 24.6829 6.25243 22.2517 7.33078L19.2799 1.97414C19.2292 1.88012 19.1536 1.80183 19.0614 1.74785C18.9692 1.69386 18.864 1.66626 18.7572 1.66805H18.757ZM11.7168 24.2365V51.1544C11.7155 51.7444 11.8308 52.3287 12.056 52.8739C12.2811 53.4192 12.6118 53.9146 13.0289 54.3317C13.4461 54.7488 13.9415 55.0794 14.4867 55.3046C15.032 55.5297 15.6164 55.645 16.2063 55.6437H44.3676C44.9575 55.645 45.5419 55.5297 46.0872 55.3046C46.6324 55.0794 47.1279 54.7488 47.545 54.3316C47.9621 53.9145 48.2928 53.4191 48.5179 52.8738C48.7431 52.3285 48.8583 51.7441 48.857 51.1542V24.2367H11.7168V24.2365Z" fill="#A4C639"></path>
      <path d="M21.7159 12.8726C20.8682 12.8726 20.1663 13.5743 20.1663 14.422C20.1663 15.27 20.8682 15.9717 21.7159 15.9717C22.5639 15.9717 23.2656 15.27 23.2656 14.422C23.2656 13.5743 22.5639 12.8726 21.7159 12.8726ZM38.8577 12.8726C38.0097 12.8726 37.308 13.5743 37.308 14.422C37.308 15.27 38.0097 15.9717 38.8577 15.9717C39.7054 15.9717 40.4073 15.27 40.4073 14.422C40.4073 13.5743 39.7054 12.8726 38.8577 12.8726Z" fill="white"></path>
    </g>
    <defs>
      <clipPath id="clip0_62_2739">
        <rect width="60" height="70.5469" fill="white" transform="translate(0.371948)"></rect>
      </clipPath>
    </defs>
  </symbol>
  <symbol fill="none" xmlns="http://www.w3.org/2000/svg" viewBox="0 0 61 62" id="apiary">
    <g clip-path="url(#clip0_62_2729)">
      <path opacity="0.5" d="M30.2999 9.56258V26.8079L45.2641 18.1674V0.921875L30.2999 9.56258Z" fill="#13A049"></path>
      <path opacity="0.5" d="M30.3 9.56258L15.3361 0.921875V18.2033L30.3 26.844V9.56258Z" fill="#A2CC39"></path>
      <path opacity="0.9" d="M45.2641 0.921875L30.3 9.56258L15.3361 0.921875L0.371948 9.56258L30.3 26.844L60.2102 9.56258L45.2641 0.921875Z" fill="url(#paint0_linear_62_2729)"></path>
      <path d="M30.3 26.8439L0.371948 9.5625V26.8439L15.3361 35.4846V52.7482L30.3 61.3889L45.2641 52.7482V35.4846L60.2102 26.8439V9.5625L30.3 26.8439Z" fill="url(#paint1_linear_62_2729)"></path>
      <path d="M30.2999 26.8439V61.3889L45.2641 52.7482V35.4846L60.2101 26.8439V9.5625L30.2999 26.8439Z" fill="url(#paint2_linear_62_2729)"></path>
      <path opacity="0.05" d="M30.2999 44.1074V61.3888L45.2641 52.7481L30.2999 44.1074Z" fill="#231F20"></path>
      <path opacity="0.1" d="M30.3 61.425V44.1436L15.3361 52.7843L30.3 61.425Z" fill="#231F20"></path>
      <path opacity="0.05" d="M15.3361 18.2031L0.371948 26.8438L15.3361 35.4845L30.3 26.8438L15.3361 18.2031Z" fill="#231F20"></path>
      <path opacity="0.05" d="M45.2641 18.2031L30.2999 26.8438L45.2641 35.4845L60.2101 26.8438L45.2641 18.2031Z" fill="#231F20"></path>
    </g>
    <defs>
      <linearGradient id="paint0_linear_62_2729" x1="60.2174" y1="13.8806" x2="0.371948" y2="13.8806" gradientUnits="userSpaceOnUse">
        <stop stop-color="#37BDA6"></stop>
        <stop offset="1" stop-color="#8AD3B8"></stop>
      </linearGradient>
      <linearGradient id="paint1_linear_62_2729" x1="60.2174" y1="35.4747" x2="0.371948" y2="35.4747" gradientUnits="userSpaceOnUse">
        <stop offset="0.5" stop-color="#4BB6AD"></stop>
        <stop offset="1" stop-color="#78BBC1"></stop>
      </linearGradient>
      <linearGradient id="paint2_linear_62_2729" x1="30.2945" y1="35.4747" x2="60.217" y2="35.4747" gradientUnits="userSpaceOnUse">
        <stop stop-color="#4379A7"></stop>
        <stop offset="1" stop-color="#7CC9B8"></stop>
      </linearGradient>
      <clipPath id="clip0_62_2729">
        <rect width="60" height="60.7031" fill="white" transform="translate(0.371948 0.921875)"></rect>
      </clipPath>
    </defs>
  </symbol>
  <symbol fill="none" xmlns="http://www.w3.org/2000/svg" viewBox="0 0 61 61" id="apple-store">
    <g clip-path="url(#clip0_62_2726)">
      <path d="M13.5119 0.273438H47.2319C54.4891 0.273438 60.3719 6.15625 60.3719 13.4134V47.1334C60.3719 54.3906 54.4891 60.2734 47.2319 60.2734H13.5119C6.25473 60.2734 0.371918 54.3906 0.371918 47.1334V13.4134C0.371918 6.15625 6.25473 0.273438 13.5119 0.273438Z" fill="url(#paint0_linear_62_2726)"></path>
      <path d="M19.6005 43.8224L19.6061 43.8243L17.5547 47.3774C16.8058 48.6744 15.1474 49.1188 13.8504 48.37C12.5536 47.6212 12.109 45.9627 12.8578 44.6657L14.369 42.0482L14.5141 41.7969C14.7731 41.4248 15.4122 40.7821 16.6908 40.903C16.6908 40.903 19.6994 41.2295 19.9172 42.7933C19.9172 42.7933 19.9467 43.3077 19.6005 43.8224ZM48.6965 34.7474H42.2995C41.8638 34.7181 41.6737 34.5625 41.5987 34.472L41.594 34.4638L34.7463 22.603L34.7374 22.6089L34.3268 22.0202C33.6536 20.9908 32.5849 23.6233 32.5849 23.6233C31.3087 26.5567 32.7661 29.8916 33.274 30.8997L42.7854 47.3739C43.534 48.6707 45.1924 49.1153 46.4897 48.3662C47.7865 47.6174 48.2311 45.959 47.482 44.6619L45.1038 40.5426C45.0576 40.4427 44.9775 40.1718 45.4652 40.1706H48.6965C50.1942 40.1706 51.4083 38.9566 51.4083 37.4589C51.4083 35.9612 50.1942 34.7472 48.6965 34.7472V34.7474ZM36.2714 38.4337C36.2714 38.4337 36.6129 40.1706 35.2917 40.1706H11.6435C10.1458 40.1706 8.93176 38.9566 8.93176 37.4589C8.93176 35.9612 10.1458 34.7472 11.6435 34.7472H17.7232C18.7047 34.6905 18.9372 34.1237 18.9372 34.1237L18.9429 34.1266L26.8788 20.3809L26.8765 20.3805C27.0211 20.1149 26.9006 19.8639 26.8797 19.8243L24.2587 15.2847C23.5099 13.9879 23.9543 12.3292 25.2513 11.5806C26.5483 10.8318 28.2068 11.2759 28.9556 12.573L30.1711 14.6784L31.3844 12.5767C32.1333 11.2799 33.7917 10.8353 35.0887 11.5844C36.3858 12.3332 36.8301 13.9914 36.0813 15.2884L25.038 34.4158C24.9897 34.5323 24.975 34.7151 25.3343 34.7472H31.9352L31.9366 34.8116C31.9366 34.8116 35.7518 34.8709 36.2714 38.4337Z" fill="white"></path>
    </g>
    <defs>
      <linearGradient id="paint0_linear_62_2726" x1="30.3719" y1="0.273438" x2="30.3719" y2="60.2734" gradientUnits="userSpaceOnUse">
        <stop stop-color="#17C9FB"></stop>
        <stop offset="1" stop-color="#1A74E8"></stop>
      </linearGradient>
      <clipPath id="clip0_62_2726">
        <rect width="60" height="60" fill="white" transform="translate(0.371918 0.273438)"></rect>
      </clipPath>
    </defs>
  </symbol>
  <symbol fill="none" xmlns="http://www.w3.org/2000/svg" viewBox="0 0 73 61" id="basecamp">
    <g clip-path="url(#clip0_62_2745)">
      <path d="M36.5129 0.273438C17.1777 0.273438 2.02949 24.8734 0.596252 45.6509C6.66386 56.1813 21.2957 60.1396 36.5134 60.1396C51.7301 60.1396 66.3627 56.1813 72.4272 45.6506C70.9937 24.8734 55.8475 0.273438 36.5131 0.273438" fill="#B6DEFF"></path>
      <path d="M67.3747 40.7017C67.3747 40.7017 63.1043 31.469 58.7637 26.0825C54.42 20.6938 49.1155 14.8262 45.9792 14.8262C42.8445 14.8262 34.0817 30.3411 30.0617 30.3411C26.0409 30.3411 23.9513 23.3079 19.0079 23.3079C14.0626 23.3079 6.20567 40.2681 6.20567 40.2681L5.67328 43.1434C5.67328 43.1434 8.40286 55.245 36.9589 55.245C65.5161 55.245 67.7983 43.3419 67.7983 43.3419L67.375 40.7014" fill="#66CC66"></path>
      <path d="M30.5093 36.962C26.0744 36.962 23.8008 32.5863 22.5682 29.8851C21.4597 27.4519 21.2679 23.6102 18.1228 23.5026C18.4318 23.3801 18.7293 23.3077 19.0082 23.3077C23.9515 23.3077 26.0411 30.3409 30.062 30.3409C34.082 30.3409 42.8448 14.8257 45.9794 14.8257C46.5701 14.8257 47.2355 15.0341 47.9574 15.4048C47.4234 15.3344 46.7386 15.3834 46.211 15.9127C45.1977 16.9262 35.9997 36.962 30.5093 36.962Z" fill="#17AD49"></path>
    </g>
    <defs>
      <clipPath id="clip0_62_2745">
        <rect width="72.1127" height="60" fill="white" transform="translate(0.371948 0.273438)"></rect>
      </clipPath>
    </defs>
  </symbol>
  <symbol fill="none" xmlns="http://www.w3.org/2000/svg" viewBox="0 0 30 31" id="facebook">
    <path d="M27.92 3H3.08C2.48263 3 2 3.48263 2 4.08V28.92C2 29.5174 2.48263 30 3.08 30H27.92C28.5174 30 29 29.5174 29 28.92V4.08C29 3.48263 28.5174 3 27.92 3ZM24.8015 10.8806H22.6449C20.954 10.8806 20.6266 11.6839 20.6266 12.8651V15.4672H24.6631L24.1366 19.5409H20.6266V30H16.418V19.5443H12.8979V15.4672H16.418V12.4635C16.418 8.97712 18.5476 7.077 21.6594 7.077C23.1511 7.077 24.4303 7.18838 24.8049 7.239V10.8806H24.8015Z" fill="white"></path>
  </symbol>
  <symbol fill="none" xmlns="http://www.w3.org/2000/svg" viewBox="0 0 31 30" id="features-1">
    <path d="M10.2275 16.8016L13.7797 12.9748L6.01008 4.61813C5.40759 3.96907 4.36579 4.14486 3.98923 4.98323C3.09805 6.99803 3.4244 9.47258 4.96827 11.1493L10.2275 16.8016ZM18.7377 14.3541C20.6581 15.3141 23.3567 14.638 25.3525 12.488C27.7499 9.90529 28.2143 6.20022 26.3692 4.21247C24.5366 2.23824 21.0974 2.72504 18.6874 5.30776C16.6917 7.45778 16.0641 10.365 16.9553 12.4339L5.58332 24.685C5.34862 24.9378 5.21678 25.2807 5.21678 25.6383C5.21678 25.9959 5.34862 26.3388 5.58332 26.5916C5.81801 26.8444 6.13632 26.9865 6.46822 26.9865C6.80012 26.9865 7.11843 26.8444 7.35313 26.5916L15.1227 18.2484L22.8798 26.6051C22.996 26.7303 23.1339 26.8296 23.2858 26.8974C23.4376 26.9651 23.6003 27 23.7647 27C23.929 27 24.0917 26.9651 24.2436 26.8974C24.3954 26.8296 24.5334 26.7303 24.6496 26.6051C24.7658 26.4799 24.858 26.3313 24.9209 26.1677C24.9837 26.0042 25.0161 25.8289 25.0161 25.6518C25.0161 25.4748 24.9837 25.2995 24.9209 25.1359C24.858 24.9723 24.7658 24.8237 24.6496 24.6985L16.8925 16.3418L18.7377 14.3541Z" fill="#02E4C0"></path>
  </symbol>
  <symbol fill="none" xmlns="http://www.w3.org/2000/svg" viewBox="0 0 31 30" id="features-2">
    <path d="M12.803 13.609C14.129 15.741 13.934 18.25 12.348 19.264C10.762 20.252 8.396 19.329 7.057 17.197C5.731 15.065 5.939 12.53 7.525 11.542C9.111 10.554 11.477 11.477 12.803 13.609ZM15 22.475C17.6 22.475 18.25 21.5 18.25 21.5C18.25 21.5 17.6 24.1 15 24.1C12.4 24.1 11.75 21.539 11.75 21.5C11.75 21.5 12.4 22.475 15 22.475ZM22.475 11.542C24.061 12.53 24.269 15.065 22.943 17.197C21.604 19.329 19.238 20.252 17.652 19.264C16.066 18.25 15.871 15.741 17.197 13.609C18.523 11.477 20.889 10.554 22.475 11.542ZM15 25.4C18.25 25.4 25.4 18.718 25.4 13.7C25.4 8.682 20.733 4.6 15 4.6C9.267 4.6 4.6 8.682 4.6 13.7C4.6 18.718 11.75 25.4 15 25.4ZM15 2C22.15 2 28 7.252 28 13.7C28 19.004 20.616 28 15 28C9.384 28 2 19.004 2 13.7C2 7.252 7.85 2 15 2Z" fill="#02E4C0"></path>
  </symbol>
  <symbol fill="none" xmlns="http://www.w3.org/2000/svg" viewBox="0 0 31 30" id="features-3">
    <path d="M23.475 9.00003C21.735 9.00003 20.0917 9.67661 18.9196 10.8485L10.425 18.3876C9.65167 19.1608 8.62458 19.5836 7.525 19.5836C5.26542 19.5836 3.41667 17.7593 3.41667 15.5C3.41667 13.2407 5.26542 11.4164 7.525 11.4164C8.62458 11.4164 9.65167 11.8392 10.4733 12.6608L11.8388 13.869L13.6875 12.25L12.1408 10.9089C11.5357 10.3016 10.8163 9.82024 10.024 9.49259C9.23172 9.16494 8.38236 8.99753 7.525 9.00003C3.92417 9.00003 1 11.9238 1 15.5C1 19.0762 3.92417 22 7.525 22C9.265 22 10.9083 21.3234 12.0804 20.1515L20.575 12.6125C21.3483 11.8392 22.3754 11.4164 23.475 11.4164C25.7346 11.4164 27.5833 13.2407 27.5833 15.5C27.5833 17.7593 25.7346 19.5836 23.475 19.5836C22.3875 19.5836 21.3483 19.1608 20.5267 18.3392L19.125 17.119L17.3125 18.7379L18.8592 20.0911C19.4659 20.6954 20.1859 21.174 20.978 21.4995C21.7701 21.8249 22.6186 21.9909 23.475 21.9879C27.0758 21.9879 30 19.0762 30 15.5C30 11.8755 27.0758 9.00003 23.475 9.00003Z" fill="#02E4C0"></path>
  </symbol>
  <symbol fill="none" xmlns="http://www.w3.org/2000/svg" viewBox="0 0 30 31" id="footer-nav">
    <path d="M15 19C18.309 19 21 16.5332 21 13.5C21 10.4667 18.309 8 15 8C11.691 8 9 10.4667 9 13.5C9 16.5332 11.691 19 15 19ZM15 10.75C16.6545 10.75 18 11.9834 18 13.5C18 15.0166 16.6545 16.25 15 16.25C13.3455 16.25 12 15.0166 12 13.5C12 11.9834 13.3455 10.75 15 10.75Z" fill="#02E4C0"></path>
    <path d="M14.2025 29.7398C14.4352 29.909 14.714 30 15 30C15.286 30 15.5648 29.909 15.7975 29.7398C16.2155 29.4388 26.0398 22.2162 25.9999 13.2001C25.9999 7.02464 21.0651 2 15 2C8.93494 2 4.00012 7.02464 4.00012 13.1931C3.96025 22.2162 13.7845 29.4388 14.2025 29.7398ZM15 4.80002C19.5498 4.80002 23.2499 8.56745 23.2499 13.2071C23.2788 19.4203 17.2165 24.9994 15 26.8292C12.7849 24.998 6.72122 19.4175 6.75009 13.2001C6.75009 8.56745 10.4502 4.80002 15 4.80002Z" fill="#02E4C0"></path>
  </symbol>
  <symbol fill="none" xmlns="http://www.w3.org/2000/svg" viewBox="0 0 30 31" id="footer-phone">
    <path d="M20.1429 1H9.85714C7.72286 1 6 2.76636 6 4.95455V26.0455C6 28.2336 7.72286 30 9.85714 30H20.1429C22.2771 30 24 28.2336 24 26.0455V4.95455C24 2.76636 22.2771 1 20.1429 1ZM17.5714 27.3636H12.4286V26.0455H17.5714V27.3636ZM21.75 23.4091H8.25V4.95455H21.75V23.4091Z" fill="#02E4C0"></path>
  </symbol>
  <symbol fill="none" xmlns="http://www.w3.org/2000/svg" viewBox="0 0 151 61" id="ibm">
    <g clip-path="url(#clip0_62_2751)">
      <path d="M0.774414 0.273438V4.37451H29.9432V0.273438H0.774414ZM34.0759 0.273438V4.37451H75.6427C75.6427 4.37451 71.3968 0.273438 65.7734 0.273438H34.0759ZM83.7969 0.273438V4.37451H108.944L107.451 0.273438H83.7969ZM126.973 0.273438L125.481 4.37451H150.4V0.273438H126.973ZM0.774414 8.24905V12.3501H29.9432V8.24905H0.774414ZM34.0759 8.2549V12.3501H80.4661C80.4661 12.3501 79.9244 9.19383 78.9793 8.2549H34.0759ZM83.7969 8.2549V12.3501H111.701L110.32 8.2549H83.7969ZM123.988 8.2549L122.607 12.3501H150.4V8.2549H123.988ZM9.15685 16.2247V20.331H21.789V16.2247H9.15685ZM42.4583 16.2247V20.331H55.0905V16.2247H42.4583ZM67.3773 16.2247V20.331H80.0095C80.0095 20.331 80.8115 18.1622 80.8115 16.2244H67.3773V16.2247ZM92.1793 16.2247V20.331H114.575L113.083 16.2244H92.1793V16.2247ZM121.237 16.2247L119.738 20.3313H142.246V16.2247H121.237ZM9.15685 24.2061V28.3066H21.789V24.2061H9.15685ZM42.4583 24.2061V28.3066H74.7237C74.7237 28.3066 77.4228 26.2022 78.2827 24.2055H42.4583V24.2061ZM92.1793 24.2061V28.3066H104.811V26.0237L105.613 28.3066H128.753L129.613 26.0237V28.3066H142.246V24.2061H118.532L117.274 27.68L116.01 24.2061H92.1793ZM9.15685 32.1811V36.2822H21.789V32.1811H9.15685ZM42.4583 32.1811V36.2822H78.2827C77.4225 34.292 74.7237 32.1811 74.7237 32.1811H42.4583ZM92.1793 32.1811V36.2822H104.811V32.1811H92.1793ZM107.106 32.1811L108.634 36.2822H125.984L127.436 32.1811H107.106ZM129.613 32.1811V36.2822H142.246V32.1811H129.613ZM9.15685 40.1568V44.2578H21.789V40.1568H9.15685ZM42.4583 40.1568V44.2578H55.0905V40.1568H42.4583ZM67.3773 40.1568V44.2578H80.8115C80.8115 42.3223 80.0095 40.1568 80.0095 40.1568H67.3773ZM92.1793 40.1568V44.2578H104.811V40.1568H92.1793ZM109.974 40.1568L111.455 44.2578H123.087L124.579 40.1568H109.974ZM129.613 40.1568V44.2578H142.246V40.1568H129.613ZM1.00271 48.1327V52.2393H30.1715V48.1324H1.00271V48.1327ZM34.0759 48.1327V52.2393H78.9793C79.9244 51.2989 80.4661 48.1324 80.4661 48.1324H34.0759V48.1327ZM84.0251 48.1327V52.2393H104.811V48.1324H84.0251V48.1327ZM112.849 48.1327L114.371 52.2393H120.289L121.717 48.1324H112.849V48.1327ZM129.613 48.1327V52.2393H150.628V48.1324H129.613V48.1327ZM1.00271 56.1138V60.2149H30.1715V56.1138H1.00271ZM34.0759 56.1138V60.2088H65.7734C71.3968 60.2088 75.6427 56.1135 75.6427 56.1135H34.0759V56.1138ZM84.0251 56.1138V60.2149H104.811V56.1138H84.0251ZM115.734 56.1138L117.198 60.2029L117.45 60.2088L118.936 56.1135H115.734V56.1138ZM129.613 56.1138V60.2149H150.628V56.1138H129.613Z" fill="#1F70C1"></path>
    </g>
    <defs>
      <clipPath id="clip0_62_2751">
        <rect width="149.854" height="60" fill="white" transform="translate(0.774414 0.273438)"></rect>
      </clipPath>
    </defs>
  </symbol>
  <symbol fill="none" xmlns="http://www.w3.org/2000/svg" viewBox="0 0 30 31" id="linkedin">
    <path d="M27.92 3H3.08C2.48263 3 2 3.48263 2 4.08V28.92C2 29.5174 2.48263 30 3.08 30H27.92C28.5174 30 29 29.5174 29 28.92V4.08C29 3.48263 28.5174 3 27.92 3ZM10.0089 26.0074H6.00275V13.1216H10.0089V26.0074ZM8.0075 11.3599C7.54825 11.3599 7.09932 11.2237 6.71747 10.9685C6.33562 10.7134 6.038 10.3508 5.86225 9.92647C5.68651 9.50218 5.64052 9.0353 5.73012 8.58488C5.81971 8.13445 6.04086 7.72071 6.3656 7.39597C6.69034 7.07124 7.10408 6.85009 7.5545 6.76049C8.00492 6.6709 8.4718 6.71688 8.89609 6.89263C9.32038 7.06837 9.68303 7.36599 9.93817 7.74784C10.1933 8.12969 10.3295 8.57863 10.3295 9.03788C10.3261 10.3204 9.28663 11.3599 8.0075 11.3599ZM25.0074 26.0074H21.0046V19.74C21.0046 18.2449 20.9776 16.3245 18.9223 16.3245C16.8399 16.3245 16.5193 17.9513 16.5193 19.632V26.0074H12.5199V13.1216H16.3606V14.8834H16.4146C16.9479 13.8709 18.254 12.801 20.2048 12.801C24.2615 12.801 25.0074 15.4706 25.0074 18.9401V26.0074Z" fill="white"></path>
  </symbol>
  <symbol fill="none" xmlns="http://www.w3.org/2000/svg" viewBox="0 0 30 31" id="twitter">
    <path d="M29 7.61333C28.0071 8.04291 26.9266 8.35208 25.8136 8.4725C26.9691 7.78397 27.8344 6.69622 28.2472 5.41333C27.1629 6.06027 25.975 6.51392 24.7363 6.75415C24.2186 6.19903 23.5924 5.7568 22.8969 5.45501C22.2013 5.15322 21.4512 4.99833 20.6933 5.00001C17.627 5.00001 15.1609 7.49291 15.1609 10.5521C15.1609 10.9817 15.2128 11.4113 15.2972 11.8246C10.7058 11.5837 6.61086 9.38374 3.88848 6.0154C3.39243 6.86518 3.13248 7.83276 3.13568 8.81747C3.13568 10.7441 4.11237 12.4429 5.60173 13.442C4.72403 13.4074 3.86687 13.1654 3.09999 12.7358V12.8042C3.09999 15.5021 5.00144 17.7379 7.53563 18.2521C7.05981 18.376 6.57033 18.4395 6.07872 18.4408C5.71854 18.4408 5.37784 18.405 5.03389 18.3562C5.73477 20.5562 7.77575 22.1541 10.2061 22.2062C8.30465 23.7 5.92297 24.5787 3.33686 24.5787C2.87285 24.5787 2.44454 24.5624 2 24.5104C4.45307 26.0888 7.36366 27 10.4981 27C20.6738 27 26.2419 18.545 26.2419 11.2062C26.2419 10.9654 26.2419 10.7246 26.2257 10.4837C27.303 9.69291 28.2472 8.71333 29 7.61333Z" fill="white"></path>
  </symbol>
</svg>