<svg width="31" height="30" viewBox="0 0 31 30" fill="none" xmlns="http://www.w3.org/2000/svg">
<path d="M12.803 13.609C14.129 15.741 13.934 18.25 12.348 19.264C10.762 20.252 8.396 19.329 7.057 17.197C5.731 15.065 5.939 12.53 7.525 11.542C9.111 10.554 11.477 11.477 12.803 13.609ZM15 22.475C17.6 22.475 18.25 21.5 18.25 21.5C18.25 21.5 17.6 24.1 15 24.1C12.4 24.1 11.75 21.539 11.75 21.5C11.75 21.5 12.4 22.475 15 22.475ZM22.475 11.542C24.061 12.53 24.269 15.065 22.943 17.197C21.604 19.329 19.238 20.252 17.652 19.264C16.066 18.25 15.871 15.741 17.197 13.609C18.523 11.477 20.889 10.554 22.475 11.542ZM15 25.4C18.25 25.4 25.4 18.718 25.4 13.7C25.4 8.682 20.733 4.6 15 4.6C9.267 4.6 4.6 8.682 4.6 13.7C4.6 18.718 11.75 25.4 15 25.4ZM15 2C22.15 2 28 7.252 28 13.7C28 19.004 20.616 28 15 28C9.384 28 2 19.004 2 13.7C2 7.252 7.85 2 15 2Z" fill="#02E4C0"/>
</svg>
