<svg width="31" height="30" viewBox="0 0 31 30" fill="none" xmlns="http://www.w3.org/2000/svg">
<path d="M10.2275 16.8016L13.7797 12.9748L6.01008 4.61813C5.40759 3.96907 4.36579 4.14486 3.98923 4.98323C3.09805 6.99803 3.4244 9.47258 4.96827 11.1493L10.2275 16.8016ZM18.7377 14.3541C20.6581 15.3141 23.3567 14.638 25.3525 12.488C27.7499 9.90529 28.2143 6.20022 26.3692 4.21247C24.5366 2.23824 21.0974 2.72504 18.6874 5.30776C16.6917 7.45778 16.0641 10.365 16.9553 12.4339L5.58332 24.685C5.34862 24.9378 5.21678 25.2807 5.21678 25.6383C5.21678 25.9959 5.34862 26.3388 5.58332 26.5916C5.81801 26.8444 6.13632 26.9865 6.46822 26.9865C6.80012 26.9865 7.11843 26.8444 7.35313 26.5916L15.1227 18.2484L22.8798 26.6051C22.996 26.7303 23.1339 26.8296 23.2858 26.8974C23.4376 26.9651 23.6003 27 23.7647 27C23.929 27 24.0917 26.9651 24.2436 26.8974C24.3954 26.8296 24.5334 26.7303 24.6496 26.6051C24.7658 26.4799 24.858 26.3313 24.9209 26.1677C24.9837 26.0042 25.0161 25.8289 25.0161 25.6518C25.0161 25.4748 24.9837 25.2995 24.9209 25.1359C24.858 24.9723 24.7658 24.8237 24.6496 24.6985L16.8925 16.3418L18.7377 14.3541Z" fill="#02E4C0"/>
</svg>
