<svg width="31" height="30" viewBox="0 0 31 30" fill="none" xmlns="http://www.w3.org/2000/svg">
<path d="M23.475 9.00003C21.735 9.00003 20.0917 9.67661 18.9196 10.8485L10.425 18.3876C9.65167 19.1608 8.62458 19.5836 7.525 19.5836C5.26542 19.5836 3.41667 17.7593 3.41667 15.5C3.41667 13.2407 5.26542 11.4164 7.525 11.4164C8.62458 11.4164 9.65167 11.8392 10.4733 12.6608L11.8388 13.869L13.6875 12.25L12.1408 10.9089C11.5357 10.3016 10.8163 9.82024 10.024 9.49259C9.23172 9.16494 8.38236 8.99753 7.525 9.00003C3.92417 9.00003 1 11.9238 1 15.5C1 19.0762 3.92417 22 7.525 22C9.265 22 10.9083 21.3234 12.0804 20.1515L20.575 12.6125C21.3483 11.8392 22.3754 11.4164 23.475 11.4164C25.7346 11.4164 27.5833 13.2407 27.5833 15.5C27.5833 17.7593 25.7346 19.5836 23.475 19.5836C22.3875 19.5836 21.3483 19.1608 20.5267 18.3392L19.125 17.119L17.3125 18.7379L18.8592 20.0911C19.4659 20.6954 20.1859 21.174 20.978 21.4995C21.7701 21.8249 22.6186 21.9909 23.475 21.9879C27.0758 21.9879 30 19.0762 30 15.5C30 11.8755 27.0758 9.00003 23.475 9.00003Z" fill="#02E4C0"/>
</svg>
